<svg xmlns="http://www.w3.org/2000/svg" xmlns:xlink="http://www.w3.org/1999/xlink" width="450" zoomAndPan="magnify" viewBox="0 0 337.5 60" height="80" preserveAspectRatio="xMidYMid meet" version="1.0"><defs><g/><clipPath id="bac895b2ab"><path d="M 95 18 L 116.949219 18 L 116.949219 42 L 95 42 Z M 95 18 " clip-rule="nonzero"/></clipPath><clipPath id="2c20ed4c21"><path d="M 88 31 L 112 31 L 112 53.871094 L 88 53.871094 Z M 88 31 " clip-rule="nonzero"/></clipPath><clipPath id="972a0dff74"><path d="M 90 42 L 105 42 L 105 53.871094 L 90 53.871094 Z M 90 42 " clip-rule="nonzero"/></clipPath><clipPath id="1e84b2892b"><path d="M 75.011719 12 L 81 12 L 81 18 L 75.011719 18 Z M 75.011719 12 " clip-rule="nonzero"/></clipPath><clipPath id="bb4eefd142"><path d="M 85 3.695312 L 89 3.695312 L 89 7 L 85 7 Z M 85 3.695312 " clip-rule="nonzero"/></clipPath><clipPath id="a7eaa1aca2"><rect x="0" width="132" y="0" height="23"/></clipPath></defs><path fill="#f9ed32" d="M 97.027344 10.613281 C 97.390625 10.613281 97.742188 10.546875 98.078125 10.40625 C 98.414062 10.269531 98.710938 10.074219 98.96875 9.816406 C 99.226562 9.5625 99.425781 9.269531 99.5625 8.933594 C 99.703125 8.601562 99.773438 8.253906 99.773438 7.894531 C 99.773438 7.53125 99.703125 7.183594 99.566406 6.851562 C 99.425781 6.519531 99.226562 6.222656 98.96875 5.96875 C 98.714844 5.710938 98.417969 5.515625 98.082031 5.378906 C 97.746094 5.238281 97.394531 5.167969 97.03125 5.167969 C 96.667969 5.167969 96.316406 5.238281 95.980469 5.375 C 95.644531 5.511719 95.347656 5.707031 95.089844 5.964844 C 94.832031 6.21875 94.632812 6.511719 94.492188 6.84375 C 94.355469 7.179688 94.285156 7.527344 94.28125 7.886719 C 94.28125 8.246094 94.351562 8.59375 94.492188 8.929688 C 94.632812 9.261719 94.828125 9.558594 95.085938 9.8125 C 95.34375 10.070312 95.640625 10.265625 95.976562 10.40625 C 96.3125 10.542969 96.664062 10.613281 97.027344 10.613281 Z M 97.027344 10.613281 " fill-opacity="0.78" fill-rule="evenodd"/><path fill="#662d91" d="M 110.324219 12.714844 C 111.84375 14.460938 112.800781 16.472656 113.195312 18.746094 C 113.753906 21.972656 112.902344 24.960938 113.5 26.96875 C 113.636719 27.421875 113.824219 27.851562 114.058594 28.261719 C 113.78125 28.421875 113.492188 28.566406 113.199219 28.695312 C 112.902344 28.820312 112.601562 28.933594 112.292969 29.027344 C 111.984375 29.121094 111.675781 29.195312 111.355469 29.253906 C 111.039062 29.3125 110.722656 29.351562 110.398438 29.375 C 110.078125 29.394531 109.757812 29.398438 109.4375 29.386719 C 109.113281 29.371094 108.792969 29.335938 108.476562 29.285156 C 108.160156 29.234375 107.84375 29.167969 107.535156 29.078125 C 107.222656 28.992188 106.921875 28.886719 106.621094 28.765625 C 106.324219 28.644531 106.035156 28.507812 105.753906 28.351562 C 105.472656 28.199219 105.199219 28.027344 104.9375 27.84375 C 104.675781 27.65625 104.425781 27.457031 104.183594 27.242188 C 103.945312 27.027344 103.71875 26.800781 103.507812 26.5625 C 103.292969 26.324219 103.097656 26.070312 102.914062 25.808594 C 102.730469 25.546875 102.5625 25.273438 102.410156 24.992188 C 102.257812 24.710938 102.121094 24.421875 102.003906 24.125 C 101.882812 23.828125 101.78125 23.527344 101.699219 23.21875 C 101.613281 22.910156 101.546875 22.597656 101.5 22.28125 C 101.453125 21.964844 101.425781 21.648438 101.414062 21.328125 C 101.402344 21.007812 101.410156 20.691406 101.4375 20.371094 C 101.460938 20.054688 101.507812 19.738281 101.570312 19.425781 C 101.632812 19.109375 101.710938 18.800781 101.8125 18.496094 C 101.910156 18.195312 102.023438 17.894531 102.15625 17.605469 C 102.289062 17.3125 102.4375 17.03125 102.605469 16.757812 C 102.769531 16.484375 102.949219 16.21875 103.148438 15.964844 C 103.34375 15.710938 103.554688 15.472656 103.777344 15.242188 C 104 15.011719 104.238281 14.796875 104.488281 14.59375 C 104.734375 14.390625 104.996094 14.203125 105.265625 14.03125 C 105.535156 13.855469 105.816406 13.699219 106.105469 13.558594 C 106.394531 13.417969 106.691406 13.292969 106.992188 13.183594 C 107.296875 13.078125 107.605469 12.988281 107.917969 12.914062 C 108.234375 12.84375 108.550781 12.789062 108.871094 12.753906 C 109.191406 12.71875 109.511719 12.699219 109.832031 12.699219 C 109.992188 12.699219 110.160156 12.703125 110.324219 12.714844 Z M 110.324219 12.714844 " fill-opacity="0.78" fill-rule="evenodd"/><g clip-path="url(#bac895b2ab)"><path fill="#92278f" d="M 113.359375 20.167969 C 113.535156 22.839844 112.992188 25.261719 113.5 26.976562 C 114.367188 29.910156 118.214844 32.566406 116.417969 34.074219 C 115.847656 34.527344 114.867188 34.554688 114.292969 35 C 113.378906 35.707031 114.003906 36.472656 114.085938 37.023438 C 114.125 37.285156 113.886719 37.707031 113.09375 38.21875 C 113.691406 38.65625 113.636719 39.023438 113.425781 39.367188 C 112.839844 39.761719 112.226562 40.101562 111.582031 40.390625 C 110.9375 40.675781 110.269531 40.902344 109.585938 41.066406 C 108.898438 41.234375 108.203125 41.339844 107.496094 41.378906 C 106.789062 41.421875 106.085938 41.398438 105.386719 41.3125 C 104.683594 41.226562 103.996094 41.082031 103.320312 40.871094 C 102.644531 40.664062 101.996094 40.394531 101.371094 40.070312 C 100.742188 39.746094 100.152344 39.367188 99.597656 38.933594 C 99.039062 38.5 98.527344 38.023438 98.058594 37.5 C 97.585938 36.976562 97.167969 36.414062 96.804688 35.8125 C 96.4375 35.214844 96.125 34.585938 95.875 33.933594 C 95.621094 33.277344 95.429688 32.605469 95.300781 31.917969 C 95.171875 31.226562 95.105469 30.53125 95.105469 29.832031 C 95.101562 29.128906 95.164062 28.433594 95.289062 27.742188 C 95.414062 27.054688 95.597656 26.378906 95.847656 25.722656 C 96.09375 25.066406 96.398438 24.4375 96.761719 23.835938 C 97.125 23.234375 97.539062 22.667969 98.003906 22.140625 C 98.46875 21.613281 98.980469 21.132812 99.535156 20.699219 C 100.085938 20.261719 100.675781 19.878906 101.300781 19.550781 C 101.921875 19.21875 102.570312 18.949219 103.246094 18.734375 C 103.917969 18.519531 104.605469 18.371094 105.308594 18.28125 C 106.007812 18.191406 106.710938 18.164062 107.417969 18.199219 C 108.125 18.234375 108.820312 18.335938 109.507812 18.496094 C 110.195312 18.660156 110.863281 18.878906 111.511719 19.164062 C 112.15625 19.445312 112.773438 19.78125 113.359375 20.171875 Z M 113.359375 20.167969 " fill-opacity="0.78" fill-rule="evenodd"/></g><g clip-path="url(#2c20ed4c21)"><path fill="#007fc6" d="M 110.855469 45.816406 C 106.410156 47.613281 100.457031 41.589844 99.65625 53.871094 C 96.765625 51.988281 93.703125 50.441406 90.46875 49.234375 C 90.199219 48.84375 89.960938 48.4375 89.742188 48.019531 C 89.527344 47.601562 89.339844 47.167969 89.179688 46.726562 C 89.015625 46.285156 88.882812 45.832031 88.777344 45.375 C 88.675781 44.914062 88.597656 44.449219 88.554688 43.984375 C 88.507812 43.515625 88.492188 43.042969 88.503906 42.574219 C 88.515625 42.101562 88.558594 41.636719 88.632812 41.171875 C 88.703125 40.703125 88.804688 40.246094 88.9375 39.792969 C 89.066406 39.339844 89.226562 38.898438 89.410156 38.464844 C 89.597656 38.03125 89.808594 37.613281 90.050781 37.207031 C 90.289062 36.800781 90.550781 36.410156 90.839844 36.035156 C 91.128906 35.660156 91.441406 35.304688 91.773438 34.972656 C 92.105469 34.636719 92.460938 34.324219 92.832031 34.03125 C 93.203125 33.738281 93.59375 33.472656 94 33.230469 C 94.40625 32.988281 94.828125 32.769531 95.261719 32.578125 C 95.695312 32.386719 96.140625 32.226562 96.59375 32.089844 C 97.046875 31.953125 97.507812 31.847656 97.976562 31.769531 C 98.445312 31.691406 98.917969 31.640625 99.390625 31.621094 C 99.863281 31.601562 100.339844 31.609375 100.8125 31.648438 C 101.285156 31.6875 101.753906 31.757812 102.21875 31.851562 C 102.683594 31.949219 103.136719 32.074219 103.585938 32.230469 C 104.035156 32.382812 104.472656 32.5625 104.898438 32.773438 C 105.324219 32.980469 105.734375 33.214844 106.132812 33.472656 C 106.527344 33.730469 106.90625 34.015625 107.265625 34.320312 C 107.625 34.625 107.964844 34.953125 108.285156 35.300781 C 108.605469 35.652344 108.902344 36.015625 109.175781 36.402344 C 109.449219 36.789062 109.695312 37.1875 109.917969 37.605469 C 110.140625 38.019531 110.335938 38.449219 110.503906 38.886719 C 110.671875 39.328125 110.8125 39.777344 110.925781 40.234375 C 111.035156 40.691406 111.117188 41.15625 111.171875 41.621094 C 111.226562 42.089844 111.25 42.558594 111.242188 43.03125 C 111.238281 43.5 111.203125 43.96875 111.136719 44.433594 C 111.070312 44.902344 110.976562 45.363281 110.855469 45.816406 Z M 110.855469 45.816406 " fill-opacity="0.78" fill-rule="evenodd"/></g><g clip-path="url(#972a0dff74)"><path fill="#01a6e6" d="M 104.328125 45.878906 C 101.980469 45.976562 100.085938 47.320312 99.65625 53.871094 C 96.78125 52 93.738281 50.460938 90.523438 49.25 C 90.542969 48.449219 90.691406 47.671875 90.96875 46.917969 C 91.246094 46.164062 91.636719 45.476562 92.144531 44.851562 C 92.648438 44.226562 93.242188 43.695312 93.925781 43.265625 C 94.605469 42.835938 95.339844 42.523438 96.125 42.332031 C 96.910156 42.140625 97.707031 42.078125 98.511719 42.144531 C 99.316406 42.214844 100.089844 42.40625 100.832031 42.726562 C 101.574219 43.050781 102.242188 43.480469 102.839844 44.019531 C 103.441406 44.558594 103.933594 45.179688 104.328125 45.878906 Z M 104.328125 45.878906 " fill-opacity="0.78" fill-rule="evenodd"/></g><path fill="#2063b2" d="M 115.070312 34.625 C 114.789062 34.703125 114.53125 34.828125 114.292969 34.992188 C 113.378906 35.699219 114.003906 36.464844 114.085938 37.015625 C 114.125 37.277344 113.886719 37.699219 113.09375 38.210938 C 114.007812 38.878906 113.394531 39.390625 113.027344 39.882812 C 111.316406 41.105469 113.695312 43.757812 110.875 45.808594 C 108.027344 46.972656 104.566406 44.921875 102.230469 46.496094 C 102.15625 46.070312 102.105469 45.644531 102.085938 45.214844 C 102.066406 44.785156 102.070312 44.355469 102.105469 43.925781 C 102.136719 43.496094 102.199219 43.070312 102.285156 42.648438 C 102.371094 42.226562 102.484375 41.8125 102.621094 41.40625 C 102.757812 40.996094 102.921875 40.597656 103.109375 40.210938 C 103.296875 39.824219 103.511719 39.449219 103.746094 39.085938 C 103.980469 38.722656 104.238281 38.378906 104.515625 38.046875 C 104.792969 37.71875 105.089844 37.40625 105.410156 37.113281 C 105.726562 36.816406 106.0625 36.546875 106.414062 36.292969 C 106.765625 36.039062 107.128906 35.8125 107.511719 35.601562 C 107.890625 35.394531 108.28125 35.214844 108.6875 35.054688 C 109.089844 34.894531 109.5 34.761719 109.921875 34.652344 C 110.339844 34.542969 110.765625 34.460938 111.195312 34.40625 C 111.625 34.351562 112.058594 34.320312 112.492188 34.320312 C 112.925781 34.316406 113.359375 34.339844 113.789062 34.390625 C 114.222656 34.441406 114.648438 34.519531 115.070312 34.621094 Z M 115.070312 34.625 " fill-opacity="0.78" fill-rule="evenodd"/><path fill="#12bcbc" d="M 82.007812 34.753906 C 82.273438 34.753906 82.539062 34.730469 82.800781 34.679688 C 83.0625 34.625 83.316406 34.550781 83.5625 34.449219 C 83.8125 34.347656 84.046875 34.222656 84.265625 34.078125 C 84.488281 33.929688 84.695312 33.761719 84.882812 33.574219 C 85.070312 33.386719 85.242188 33.183594 85.390625 32.964844 C 85.539062 32.742188 85.664062 32.511719 85.765625 32.265625 C 85.867188 32.023438 85.945312 31.769531 85.996094 31.511719 C 86.046875 31.25 86.074219 30.988281 86.074219 30.722656 C 86.074219 30.457031 86.050781 30.195312 85.996094 29.9375 C 85.945312 29.675781 85.867188 29.425781 85.765625 29.179688 C 85.664062 28.9375 85.539062 28.703125 85.390625 28.484375 C 85.242188 28.261719 85.074219 28.058594 84.882812 27.871094 C 84.695312 27.683594 84.488281 27.515625 84.269531 27.371094 C 84.046875 27.222656 83.8125 27.097656 83.566406 26.996094 C 83.320312 26.894531 83.0625 26.820312 82.800781 26.769531 C 82.539062 26.714844 82.277344 26.691406 82.007812 26.691406 C 81.742188 26.691406 81.476562 26.714844 81.214844 26.769531 C 80.953125 26.820312 80.699219 26.898438 80.453125 27 C 80.207031 27.097656 79.972656 27.222656 79.75 27.371094 C 79.527344 27.519531 79.324219 27.683594 79.132812 27.871094 C 78.945312 28.058594 78.777344 28.265625 78.628906 28.484375 C 78.480469 28.703125 78.355469 28.9375 78.253906 29.179688 C 78.152344 29.425781 78.074219 29.679688 78.023438 29.9375 C 77.96875 30.199219 77.945312 30.460938 77.945312 30.726562 C 77.945312 30.988281 77.972656 31.25 78.023438 31.511719 C 78.078125 31.769531 78.152344 32.023438 78.257812 32.265625 C 78.359375 32.511719 78.484375 32.742188 78.632812 32.960938 C 78.78125 33.183594 78.949219 33.386719 79.136719 33.574219 C 79.324219 33.757812 79.53125 33.925781 79.753906 34.074219 C 79.972656 34.21875 80.207031 34.34375 80.453125 34.445312 C 80.699219 34.546875 80.953125 34.625 81.214844 34.675781 C 81.476562 34.726562 81.742188 34.753906 82.007812 34.753906 Z M 82.007812 34.753906 " fill-opacity="0.78" fill-rule="evenodd"/><path fill="#00b9f1" d="M 90.523438 40.367188 C 91.015625 40.371094 91.488281 40.277344 91.941406 40.09375 C 92.398438 39.90625 92.800781 39.640625 93.148438 39.296875 C 93.496094 38.953125 93.765625 38.554688 93.957031 38.105469 C 94.144531 37.65625 94.238281 37.183594 94.242188 36.699219 C 94.242188 36.210938 94.148438 35.738281 93.960938 35.289062 C 93.773438 34.835938 93.507812 34.4375 93.160156 34.09375 C 92.8125 33.746094 92.410156 33.480469 91.957031 33.292969 C 91.5 33.105469 91.027344 33.011719 90.535156 33.011719 C 90.042969 33.011719 89.570312 33.105469 89.117188 33.292969 C 88.660156 33.476562 88.261719 33.742188 87.914062 34.089844 C 87.5625 34.433594 87.296875 34.832031 87.109375 35.28125 C 86.917969 35.734375 86.824219 36.203125 86.824219 36.691406 C 86.824219 37.175781 86.921875 37.644531 87.109375 38.09375 C 87.296875 38.542969 87.5625 38.941406 87.910156 39.285156 C 88.253906 39.628906 88.65625 39.894531 89.109375 40.082031 C 89.558594 40.269531 90.03125 40.367188 90.523438 40.367188 Z M 90.523438 40.367188 " fill-opacity="0.78" fill-rule="evenodd"/><path fill="#8dc63f" d="M 81.421875 24.941406 C 81.800781 24.941406 82.164062 24.871094 82.511719 24.726562 C 82.863281 24.585938 83.171875 24.378906 83.4375 24.113281 C 83.703125 23.851562 83.910156 23.542969 84.054688 23.199219 C 84.199219 22.851562 84.273438 22.492188 84.273438 22.117188 C 84.273438 21.742188 84.199219 21.382812 84.054688 21.035156 C 83.910156 20.6875 83.703125 20.382812 83.4375 20.117188 C 83.167969 19.855469 82.863281 19.648438 82.511719 19.507812 C 82.164062 19.363281 81.800781 19.292969 81.421875 19.292969 C 81.042969 19.292969 80.679688 19.363281 80.332031 19.507812 C 79.984375 19.652344 79.675781 19.855469 79.40625 20.121094 C 79.140625 20.386719 78.933594 20.691406 78.789062 21.039062 C 78.644531 21.382812 78.574219 21.746094 78.574219 22.117188 C 78.574219 22.492188 78.648438 22.851562 78.792969 23.199219 C 78.9375 23.542969 79.144531 23.851562 79.410156 24.113281 C 79.675781 24.378906 79.984375 24.582031 80.335938 24.726562 C 80.683594 24.871094 81.046875 24.941406 81.421875 24.941406 Z M 81.421875 24.941406 " fill-opacity="0.78" fill-rule="evenodd"/><g clip-path="url(#1e84b2892b)"><path fill="#ffd900" d="M 80.003906 15.097656 C 80.003906 15.421875 79.941406 15.734375 79.816406 16.03125 C 79.691406 16.332031 79.511719 16.597656 79.28125 16.828125 C 79.046875 17.054688 78.78125 17.234375 78.480469 17.355469 C 78.175781 17.480469 77.863281 17.542969 77.535156 17.542969 C 77.207031 17.542969 76.894531 17.480469 76.59375 17.355469 C 76.289062 17.234375 76.023438 17.054688 75.792969 16.828125 C 75.558594 16.597656 75.382812 16.332031 75.257812 16.03125 C 75.132812 15.734375 75.070312 15.421875 75.070312 15.097656 C 75.070312 14.773438 75.132812 14.460938 75.257812 14.160156 C 75.382812 13.859375 75.558594 13.597656 75.792969 13.367188 C 76.023438 13.136719 76.289062 12.960938 76.59375 12.835938 C 76.894531 12.710938 77.207031 12.648438 77.535156 12.648438 C 77.863281 12.648438 78.175781 12.710938 78.480469 12.835938 C 78.78125 12.960938 79.046875 13.136719 79.28125 13.367188 C 79.511719 13.597656 79.691406 13.859375 79.816406 14.160156 C 79.941406 14.460938 80.003906 14.773438 80.003906 15.097656 Z M 80.003906 15.097656 " fill-opacity="0.78" fill-rule="nonzero"/></g><path fill="#009444" d="M 82.746094 10.613281 C 83.054688 10.613281 83.347656 10.554688 83.628906 10.441406 C 83.910156 10.324219 84.160156 10.160156 84.375 9.945312 C 84.59375 9.730469 84.757812 9.484375 84.875 9.207031 C 84.992188 8.925781 85.050781 8.632812 85.050781 8.332031 C 85.050781 8.027344 84.992188 7.738281 84.878906 7.457031 C 84.761719 7.175781 84.59375 6.929688 84.378906 6.714844 C 84.164062 6.5 83.914062 6.335938 83.632812 6.21875 C 83.347656 6.105469 83.054688 6.046875 82.75 6.046875 C 82.445312 6.046875 82.152344 6.101562 81.867188 6.21875 C 81.585938 6.335938 81.335938 6.5 81.121094 6.714844 C 80.90625 6.929688 80.738281 7.175781 80.621094 7.457031 C 80.503906 7.734375 80.445312 8.027344 80.445312 8.328125 C 80.445312 8.632812 80.503906 8.921875 80.621094 9.203125 C 80.738281 9.484375 80.90625 9.730469 81.121094 9.945312 C 81.335938 10.15625 81.585938 10.324219 81.867188 10.4375 C 82.148438 10.554688 82.441406 10.613281 82.746094 10.613281 Z M 82.746094 10.613281 " fill-opacity="0.78" fill-rule="evenodd"/><path fill="#56ba48" d="M 83.527344 16.308594 C 83.730469 16.308594 83.925781 16.269531 84.109375 16.191406 C 84.296875 16.117188 84.460938 16.007812 84.605469 15.863281 C 84.746094 15.722656 84.855469 15.558594 84.933594 15.375 C 85.011719 15.191406 85.050781 15 85.050781 14.796875 C 85.050781 14.597656 85.011719 14.40625 84.933594 14.222656 C 84.855469 14.035156 84.746094 13.871094 84.605469 13.730469 C 84.460938 13.589844 84.296875 13.480469 84.109375 13.402344 C 83.925781 13.328125 83.730469 13.289062 83.527344 13.289062 C 83.328125 13.289062 83.132812 13.328125 82.945312 13.402344 C 82.761719 13.480469 82.597656 13.589844 82.453125 13.730469 C 82.3125 13.871094 82.199219 14.035156 82.125 14.222656 C 82.046875 14.40625 82.007812 14.597656 82.007812 14.796875 C 82.007812 15 82.046875 15.191406 82.125 15.375 C 82.203125 15.558594 82.3125 15.722656 82.453125 15.863281 C 82.597656 16.003906 82.761719 16.113281 82.949219 16.191406 C 83.132812 16.269531 83.328125 16.308594 83.527344 16.308594 Z M 83.527344 16.308594 " fill-opacity="0.78" fill-rule="evenodd"/><g clip-path="url(#bb4eefd142)"><path fill="#fbad17" d="M 86.703125 6.710938 C 86.902344 6.710938 87.097656 6.675781 87.285156 6.597656 C 87.46875 6.519531 87.632812 6.414062 87.777344 6.269531 C 87.921875 6.128906 88.03125 5.964844 88.105469 5.78125 C 88.183594 5.597656 88.222656 5.402344 88.222656 5.203125 C 88.222656 5.003906 88.183594 4.8125 88.105469 4.625 C 88.03125 4.441406 87.921875 4.277344 87.777344 4.136719 C 87.632812 3.996094 87.46875 3.886719 87.285156 3.808594 C 87.097656 3.734375 86.902344 3.695312 86.703125 3.695312 C 86.5 3.695312 86.304688 3.734375 86.121094 3.808594 C 85.933594 3.886719 85.769531 3.996094 85.625 4.136719 C 85.484375 4.277344 85.375 4.441406 85.296875 4.625 C 85.21875 4.8125 85.179688 5.003906 85.179688 5.203125 C 85.179688 5.402344 85.21875 5.597656 85.296875 5.78125 C 85.375 5.964844 85.484375 6.128906 85.628906 6.269531 C 85.769531 6.410156 85.933594 6.519531 86.121094 6.597656 C 86.304688 6.671875 86.5 6.710938 86.703125 6.710938 Z M 86.703125 6.710938 " fill-opacity="0.78" fill-rule="evenodd"/></g><path fill="#f15c22" d="M 77.359375 10.078125 C 77.511719 10.074219 77.65625 10.046875 77.796875 9.988281 C 77.9375 9.929688 78.0625 9.847656 78.171875 9.738281 C 78.277344 9.632812 78.359375 9.507812 78.417969 9.367188 C 78.476562 9.226562 78.503906 9.082031 78.503906 8.929688 C 78.503906 8.78125 78.472656 8.632812 78.414062 8.496094 C 78.355469 8.355469 78.273438 8.230469 78.164062 8.125 C 78.058594 8.019531 77.933594 7.9375 77.792969 7.878906 C 77.648438 7.820312 77.503906 7.792969 77.351562 7.792969 C 77.199219 7.792969 77.050781 7.820312 76.910156 7.878906 C 76.769531 7.9375 76.644531 8.019531 76.539062 8.128906 C 76.429688 8.234375 76.347656 8.359375 76.289062 8.496094 C 76.230469 8.636719 76.203125 8.78125 76.203125 8.933594 C 76.203125 9.085938 76.230469 9.230469 76.289062 9.371094 C 76.347656 9.511719 76.433594 9.636719 76.542969 9.742188 C 76.648438 9.847656 76.773438 9.933594 76.917969 9.988281 C 77.058594 10.046875 77.203125 10.078125 77.359375 10.078125 Z M 77.359375 10.078125 " fill-opacity="0.78" fill-rule="evenodd"/><path fill="#fbad17" d="M 104.730469 21.726562 C 104.730469 22.355469 104.667969 22.976562 104.542969 23.589844 C 104.421875 24.203125 104.238281 24.800781 103.996094 25.378906 C 103.753906 25.957031 103.457031 26.507812 103.105469 27.03125 C 102.757812 27.550781 102.359375 28.03125 101.910156 28.476562 C 101.464844 28.917969 100.976562 29.316406 100.453125 29.664062 C 99.925781 30.011719 99.371094 30.304688 98.789062 30.546875 C 98.207031 30.785156 97.605469 30.964844 96.984375 31.089844 C 96.363281 31.210938 95.738281 31.269531 95.105469 31.269531 C 94.476562 31.269531 93.847656 31.210938 93.230469 31.089844 C 92.609375 30.964844 92.007812 30.785156 91.425781 30.546875 C 90.839844 30.304688 90.285156 30.011719 89.761719 29.664062 C 89.234375 29.316406 88.75 28.917969 88.304688 28.476562 C 87.855469 28.03125 87.457031 27.550781 87.105469 27.03125 C 86.753906 26.507812 86.460938 25.957031 86.21875 25.378906 C 85.976562 24.800781 85.792969 24.203125 85.671875 23.589844 C 85.546875 22.976562 85.484375 22.355469 85.484375 21.726562 C 85.484375 21.101562 85.546875 20.480469 85.671875 19.867188 C 85.792969 19.25 85.976562 18.65625 86.21875 18.074219 C 86.460938 17.496094 86.753906 16.945312 87.105469 16.425781 C 87.457031 15.90625 87.855469 15.421875 88.304688 14.980469 C 88.75 14.535156 89.234375 14.140625 89.761719 13.792969 C 90.285156 13.445312 90.839844 13.148438 91.425781 12.910156 C 92.007812 12.671875 92.609375 12.488281 93.230469 12.367188 C 93.847656 12.246094 94.476562 12.183594 95.105469 12.183594 C 95.738281 12.183594 96.363281 12.246094 96.984375 12.367188 C 97.605469 12.488281 98.207031 12.671875 98.789062 12.910156 C 99.371094 13.148438 99.925781 13.445312 100.453125 13.792969 C 100.976562 14.140625 101.464844 14.535156 101.910156 14.980469 C 102.359375 15.421875 102.757812 15.90625 103.105469 16.425781 C 103.457031 16.945312 103.753906 17.496094 103.996094 18.074219 C 104.238281 18.65625 104.421875 19.25 104.542969 19.867188 C 104.667969 20.480469 104.730469 21.101562 104.730469 21.726562 Z M 104.730469 21.726562 " fill-opacity="0.78" fill-rule="nonzero"/><path fill="#ec008b" d="M 100.421875 7.28125 C 105.035156 8.226562 108.894531 10.515625 111.175781 13.8125 C 111.136719 14.089844 111.078125 14.367188 111.003906 14.640625 C 110.933594 14.910156 110.839844 15.179688 110.734375 15.441406 C 110.628906 15.699219 110.503906 15.953125 110.367188 16.199219 C 110.226562 16.445312 110.074219 16.683594 109.90625 16.910156 C 109.738281 17.136719 109.554688 17.355469 109.359375 17.558594 C 109.164062 17.765625 108.957031 17.957031 108.738281 18.136719 C 108.519531 18.316406 108.289062 18.480469 108.046875 18.632812 C 107.808594 18.78125 107.558594 18.917969 107.300781 19.039062 C 107.046875 19.160156 106.78125 19.265625 106.511719 19.351562 C 106.242188 19.441406 105.96875 19.511719 105.6875 19.566406 C 105.410156 19.621094 105.128906 19.65625 104.84375 19.675781 C 104.558594 19.695312 104.277344 19.699219 103.992188 19.683594 C 103.707031 19.667969 103.425781 19.636719 103.148438 19.585938 C 102.867188 19.535156 102.589844 19.46875 102.320312 19.386719 C 102.046875 19.300781 101.785156 19.203125 101.523438 19.085938 C 101.265625 18.96875 101.015625 18.835938 100.773438 18.691406 C 100.53125 18.542969 100.296875 18.382812 100.074219 18.203125 C 99.851562 18.027344 99.640625 17.839844 99.445312 17.640625 C 99.246094 17.4375 99.058594 17.222656 98.886719 17 C 98.714844 16.773438 98.558594 16.539062 98.414062 16.296875 C 98.273438 16.050781 98.144531 15.800781 98.035156 15.542969 C 97.921875 15.28125 97.828125 15.015625 97.75 14.746094 C 97.671875 14.472656 97.613281 14.199219 97.566406 13.921875 C 97.523438 13.640625 97.496094 13.363281 97.488281 13.078125 C 97.480469 12.796875 97.488281 12.515625 97.515625 12.234375 C 97.542969 11.953125 97.585938 11.675781 97.648438 11.402344 C 97.710938 11.125 97.789062 10.855469 97.882812 10.589844 C 97.976562 10.324219 98.089844 10.066406 98.214844 9.8125 C 98.34375 9.5625 98.488281 9.316406 98.644531 9.082031 C 98.800781 8.847656 98.976562 8.625 99.160156 8.410156 C 99.347656 8.199219 99.546875 7.996094 99.757812 7.808594 C 99.96875 7.617188 100.1875 7.445312 100.421875 7.28125 Z M 100.421875 7.28125 " fill-opacity="0.78" fill-rule="evenodd"/><path fill="#56ba48" d="M 91.867188 17.546875 C 92.246094 17.546875 92.621094 17.507812 92.992188 17.4375 C 93.363281 17.363281 93.722656 17.253906 94.074219 17.109375 C 94.421875 16.96875 94.753906 16.792969 95.070312 16.582031 C 95.382812 16.375 95.675781 16.136719 95.941406 15.871094 C 96.210938 15.605469 96.449219 15.316406 96.660156 15.007812 C 96.871094 14.695312 97.046875 14.363281 97.191406 14.019531 C 97.335938 13.671875 97.445312 13.3125 97.519531 12.945312 C 97.59375 12.578125 97.632812 12.207031 97.632812 11.832031 C 97.632812 11.457031 97.59375 11.082031 97.519531 10.714844 C 97.449219 10.347656 97.339844 9.988281 97.195312 9.644531 C 97.046875 9.296875 96.871094 8.96875 96.660156 8.65625 C 96.449219 8.34375 96.210938 8.054688 95.945312 7.789062 C 95.675781 7.523438 95.386719 7.285156 95.070312 7.078125 C 94.757812 6.867188 94.425781 6.691406 94.074219 6.550781 C 93.726562 6.40625 93.363281 6.296875 92.992188 6.222656 C 92.621094 6.152344 92.25 6.113281 91.871094 6.113281 C 91.492188 6.113281 91.117188 6.148438 90.746094 6.222656 C 90.375 6.296875 90.015625 6.40625 89.664062 6.546875 C 89.316406 6.691406 88.984375 6.867188 88.667969 7.078125 C 88.351562 7.285156 88.0625 7.523438 87.792969 7.789062 C 87.527344 8.054688 87.289062 8.339844 87.078125 8.652344 C 86.867188 8.964844 86.691406 9.296875 86.546875 9.640625 C 86.402344 9.988281 86.292969 10.347656 86.21875 10.714844 C 86.144531 11.082031 86.105469 11.453125 86.105469 11.828125 C 86.105469 12.203125 86.144531 12.574219 86.21875 12.945312 C 86.292969 13.3125 86.402344 13.667969 86.546875 14.015625 C 86.691406 14.359375 86.871094 14.691406 87.082031 15.003906 C 87.289062 15.3125 87.53125 15.601562 87.796875 15.867188 C 88.0625 16.132812 88.355469 16.371094 88.667969 16.578125 C 88.984375 16.785156 89.316406 16.964844 89.664062 17.105469 C 90.011719 17.25 90.375 17.359375 90.746094 17.433594 C 91.113281 17.507812 91.488281 17.542969 91.867188 17.546875 Z M 91.867188 17.546875 " fill-opacity="0.78" fill-rule="evenodd"/><g transform="matrix(1, 0, 0, 1, 125, 15)"><g clip-path="url(#a7eaa1aca2)"><g fill="#27aba3" fill-opacity="1"><g transform="translate(0.229188, 16.887291)"><g><path d="M 10.125 0 L 7.5 0 L 4.65625 -4.59375 L 3.671875 -3.890625 L 3.671875 0 L 1.375 0 L 1.375 -10.890625 L 3.671875 -10.890625 L 3.671875 -5.90625 C 3.828125 -6.113281 3.976562 -6.320312 4.125 -6.53125 C 4.28125 -6.75 4.4375 -6.96875 4.59375 -7.1875 L 7.53125 -10.890625 L 10.09375 -10.890625 L 6.296875 -6.0625 Z M 10.125 0 "/></g></g></g><g fill="#27aba3" fill-opacity="1"><g transform="translate(11.129556, 16.887291)"><g><path d="M 8.03125 0 L 7.25 -2.59375 L 3.28125 -2.59375 L 2.484375 0 L 0 0 L 3.84375 -10.9375 L 6.671875 -10.9375 L 10.515625 0 Z M 6.6875 -4.53125 L 5.90625 -7.0625 C 5.851562 -7.226562 5.785156 -7.441406 5.703125 -7.703125 C 5.617188 -7.972656 5.535156 -8.242188 5.453125 -8.515625 C 5.378906 -8.796875 5.316406 -9.035156 5.265625 -9.234375 C 5.210938 -9.035156 5.140625 -8.785156 5.046875 -8.484375 C 4.960938 -8.179688 4.878906 -7.894531 4.796875 -7.625 C 4.722656 -7.363281 4.671875 -7.175781 4.640625 -7.0625 L 3.859375 -4.53125 Z M 6.6875 -4.53125 "/></g></g></g><g fill="#27aba3" fill-opacity="1"><g transform="translate(22.424421, 16.887291)"><g><path d="M 5.984375 0 L 3.359375 -8.546875 L 3.296875 -8.546875 C 3.304688 -8.335938 3.320312 -8.023438 3.34375 -7.609375 C 3.363281 -7.203125 3.382812 -6.769531 3.40625 -6.3125 C 3.425781 -5.851562 3.4375 -5.4375 3.4375 -5.0625 L 3.4375 0 L 1.375 0 L 1.375 -10.890625 L 4.515625 -10.890625 L 7.09375 -2.5625 L 7.140625 -2.5625 L 9.859375 -10.890625 L 13.015625 -10.890625 L 13.015625 0 L 10.859375 0 L 10.859375 -5.15625 C 10.859375 -5.5 10.863281 -5.890625 10.875 -6.328125 C 10.882812 -6.773438 10.898438 -7.203125 10.921875 -7.609375 C 10.941406 -8.015625 10.957031 -8.320312 10.96875 -8.53125 L 10.90625 -8.53125 L 8.09375 0 Z M 5.984375 0 "/></g></g></g><g fill="#27aba3" fill-opacity="1"><g transform="translate(37.574931, 16.887291)"><g><path d="M 8.03125 0 L 7.25 -2.59375 L 3.28125 -2.59375 L 2.484375 0 L 0 0 L 3.84375 -10.9375 L 6.671875 -10.9375 L 10.515625 0 Z M 6.6875 -4.53125 L 5.90625 -7.0625 C 5.851562 -7.226562 5.785156 -7.441406 5.703125 -7.703125 C 5.617188 -7.972656 5.535156 -8.242188 5.453125 -8.515625 C 5.378906 -8.796875 5.316406 -9.035156 5.265625 -9.234375 C 5.210938 -9.035156 5.140625 -8.785156 5.046875 -8.484375 C 4.960938 -8.179688 4.878906 -7.894531 4.796875 -7.625 C 4.722656 -7.363281 4.671875 -7.175781 4.640625 -7.0625 L 3.859375 -4.53125 Z M 6.6875 -4.53125 "/></g></g></g><g fill="#27aba3" fill-opacity="1"><g transform="translate(48.869796, 16.887291)"><g><path d="M 1.375 0 L 1.375 -10.890625 L 3.671875 -10.890625 L 3.671875 -1.90625 L 8.09375 -1.90625 L 8.09375 0 Z M 1.375 0 "/></g></g></g><g fill="#27aba3" fill-opacity="1"><g transform="translate(58.259168, 16.887291)"><g/></g></g><g fill="#27aba3" fill-opacity="1"><g transform="translate(62.99646, 16.887291)"><g><path d="M 10.125 0 L 7.5 0 L 4.65625 -4.59375 L 3.671875 -3.890625 L 3.671875 0 L 1.375 0 L 1.375 -10.890625 L 3.671875 -10.890625 L 3.671875 -5.90625 C 3.828125 -6.113281 3.976562 -6.320312 4.125 -6.53125 C 4.28125 -6.75 4.4375 -6.96875 4.59375 -7.1875 L 7.53125 -10.890625 L 10.09375 -10.890625 L 6.296875 -6.0625 Z M 10.125 0 "/></g></g></g><g fill="#27aba3" fill-opacity="1"><g transform="translate(73.896828, 16.887291)"><g><path d="M 8.03125 0 L 7.25 -2.59375 L 3.28125 -2.59375 L 2.484375 0 L 0 0 L 3.84375 -10.9375 L 6.671875 -10.9375 L 10.515625 0 Z M 6.6875 -4.53125 L 5.90625 -7.0625 C 5.851562 -7.226562 5.785156 -7.441406 5.703125 -7.703125 C 5.617188 -7.972656 5.535156 -8.242188 5.453125 -8.515625 C 5.378906 -8.796875 5.316406 -9.035156 5.265625 -9.234375 C 5.210938 -9.035156 5.140625 -8.785156 5.046875 -8.484375 C 4.960938 -8.179688 4.878906 -7.894531 4.796875 -7.625 C 4.722656 -7.363281 4.671875 -7.175781 4.640625 -7.0625 L 3.859375 -4.53125 Z M 6.6875 -4.53125 "/></g></g></g><g fill="#27aba3" fill-opacity="1"><g transform="translate(85.191693, 16.887291)"><g><path d="M 5.5625 0 L 3.265625 0 L 3.265625 -8.96875 L 0.3125 -8.96875 L 0.3125 -10.890625 L 8.53125 -10.890625 L 8.53125 -8.96875 L 5.5625 -8.96875 Z M 5.5625 0 "/></g></g></g><g fill="#27aba3" fill-opacity="1"><g transform="translate(94.796922, 16.887291)"><g><path d="M 14.75 -10.890625 L 11.96875 0 L 9.34375 0 L 7.875 -5.71875 C 7.84375 -5.820312 7.800781 -5.984375 7.75 -6.203125 C 7.695312 -6.429688 7.644531 -6.675781 7.59375 -6.9375 C 7.539062 -7.207031 7.492188 -7.460938 7.453125 -7.703125 C 7.410156 -7.941406 7.378906 -8.128906 7.359375 -8.265625 C 7.347656 -8.128906 7.320312 -7.941406 7.28125 -7.703125 C 7.238281 -7.472656 7.191406 -7.222656 7.140625 -6.953125 C 7.085938 -6.691406 7.035156 -6.445312 6.984375 -6.21875 C 6.929688 -5.988281 6.890625 -5.816406 6.859375 -5.703125 L 5.40625 0 L 2.78125 0 L 0 -10.890625 L 2.265625 -10.890625 L 3.65625 -4.9375 C 3.695312 -4.757812 3.742188 -4.546875 3.796875 -4.296875 C 3.847656 -4.054688 3.898438 -3.800781 3.953125 -3.53125 C 4.003906 -3.257812 4.050781 -3 4.09375 -2.75 C 4.132812 -2.5 4.164062 -2.28125 4.1875 -2.09375 C 4.21875 -2.28125 4.25 -2.5 4.28125 -2.75 C 4.320312 -3 4.363281 -3.253906 4.40625 -3.515625 C 4.457031 -3.773438 4.507812 -4.015625 4.5625 -4.234375 C 4.613281 -4.460938 4.660156 -4.644531 4.703125 -4.78125 L 6.28125 -10.890625 L 8.46875 -10.890625 L 10.046875 -4.78125 C 10.085938 -4.65625 10.128906 -4.476562 10.171875 -4.25 C 10.222656 -4.019531 10.269531 -3.773438 10.3125 -3.515625 C 10.363281 -3.253906 10.410156 -3 10.453125 -2.75 C 10.492188 -2.5 10.523438 -2.28125 10.546875 -2.09375 C 10.585938 -2.34375 10.640625 -2.644531 10.703125 -3 C 10.765625 -3.351562 10.828125 -3.707031 10.890625 -4.0625 C 10.960938 -4.414062 11.03125 -4.707031 11.09375 -4.9375 L 12.46875 -10.890625 Z M 14.75 -10.890625 "/></g></g></g><g fill="#27aba3" fill-opacity="1"><g transform="translate(110.312155, 16.887291)"><g><path d="M 8.03125 0 L 7.25 -2.59375 L 3.28125 -2.59375 L 2.484375 0 L 0 0 L 3.84375 -10.9375 L 6.671875 -10.9375 L 10.515625 0 Z M 6.6875 -4.53125 L 5.90625 -7.0625 C 5.851562 -7.226562 5.785156 -7.441406 5.703125 -7.703125 C 5.617188 -7.972656 5.535156 -8.242188 5.453125 -8.515625 C 5.378906 -8.796875 5.316406 -9.035156 5.265625 -9.234375 C 5.210938 -9.035156 5.140625 -8.785156 5.046875 -8.484375 C 4.960938 -8.179688 4.878906 -7.894531 4.796875 -7.625 C 4.722656 -7.363281 4.671875 -7.175781 4.640625 -7.0625 L 3.859375 -4.53125 Z M 6.6875 -4.53125 "/></g></g></g><g fill="#27aba3" fill-opacity="1"><g transform="translate(121.60702, 16.887291)"><g><path d="M 1.375 0 L 1.375 -10.890625 L 3.671875 -10.890625 L 3.671875 -1.90625 L 8.09375 -1.90625 L 8.09375 0 Z M 1.375 0 "/></g></g></g></g></g></svg>